# Blender v2.79 (sub 0) OBJ File: 'missile.blend'
# www.blender.org
mtllib missile.mtl
o Cone.001_Cone.002
v -1.000000 -0.451785 0.465338
v -0.600000 -0.168942 0.182496
v -1.000000 -0.168942 0.182496
vn -0.0000 -0.7071 -0.7071
usemtl None
s off
f 1//1 3//1 2//1
o Cone
v 1.000000 0.000000 -0.250000
v 1.500000 -0.000000 0.000000
v 1.000000 -0.048773 -0.245196
v 1.000000 -0.095671 -0.230970
v 1.000000 -0.138893 -0.207867
v 1.000000 -0.176777 -0.176777
v 1.000000 -0.207867 -0.138893
v 1.000000 -0.230970 -0.095671
v 1.000000 -0.245196 -0.048773
v 1.000000 -0.250000 -0.000000
v 1.000000 -0.245196 0.048773
v 1.000000 -0.230970 0.095671
v 1.000000 -0.207867 0.138893
v 1.000000 -0.176777 0.176777
v 1.000000 -0.138893 0.207867
v 1.000000 -0.095671 0.230970
v 1.000000 -0.048773 0.245196
v 1.000000 0.000000 0.250000
v 1.000000 0.048773 0.245196
v 1.000000 0.095671 0.230970
v 1.000000 0.138893 0.207867
v 1.000000 0.176777 0.176777
v 1.000000 0.207868 0.138892
v 1.000000 0.230970 0.095671
v 1.000000 0.245196 0.048772
v 1.000000 0.250000 -0.000000
v 1.000000 0.245196 -0.048773
v 1.000000 0.230970 -0.095671
v 1.000000 0.207867 -0.138893
v 1.000000 0.176776 -0.176777
v 1.000000 0.138892 -0.207868
v 1.000000 0.095671 -0.230970
v 1.000000 0.048772 -0.245196
vn 0.4455 -0.0878 -0.8910
vn 0.4455 -0.2599 -0.8567
vn 0.4455 -0.4220 -0.7896
vn 0.4455 -0.5680 -0.6921
vn 0.4455 -0.6921 -0.5680
vn 0.4455 -0.7896 -0.4220
vn 0.4455 -0.8567 -0.2599
vn 0.4455 -0.8910 -0.0878
vn 0.4455 -0.8910 0.0878
vn 0.4455 -0.8567 0.2599
vn 0.4455 -0.7896 0.4220
vn 0.4455 -0.6921 0.5680
vn 0.4455 -0.5680 0.6921
vn 0.4455 -0.4220 0.7896
vn 0.4455 -0.2599 0.8567
vn 0.4455 -0.0878 0.8910
vn 0.4455 0.0878 0.8910
vn 0.4455 0.2599 0.8567
vn 0.4455 0.4220 0.7896
vn 0.4455 0.5680 0.6921
vn 0.4455 0.6921 0.5680
vn 0.4455 0.7896 0.4220
vn 0.4455 0.8567 0.2599
vn 0.4455 0.8910 0.0878
vn 0.4455 0.8910 -0.0878
vn 0.4455 0.8567 -0.2599
vn 0.4455 0.7896 -0.4220
vn 0.4455 0.6921 -0.5680
vn 0.4455 0.5680 -0.6921
vn 0.4455 0.4220 -0.7896
vn 0.4455 0.2599 -0.8567
vn 0.4455 0.0878 -0.8910
vn -1.0000 0.0000 0.0000
usemtl None
s off
f 4//2 5//2 6//2
f 6//3 5//3 7//3
f 7//4 5//4 8//4
f 8//5 5//5 9//5
f 9//6 5//6 10//6
f 10//7 5//7 11//7
f 11//8 5//8 12//8
f 12//9 5//9 13//9
f 13//10 5//10 14//10
f 14//11 5//11 15//11
f 15//12 5//12 16//12
f 16//13 5//13 17//13
f 17//14 5//14 18//14
f 18//15 5//15 19//15
f 19//16 5//16 20//16
f 20//17 5//17 21//17
f 21//18 5//18 22//18
f 22//19 5//19 23//19
f 23//20 5//20 24//20
f 24//21 5//21 25//21
f 25//22 5//22 26//22
f 26//23 5//23 27//23
f 27//24 5//24 28//24
f 28//25 5//25 29//25
f 29//26 5//26 30//26
f 30//27 5//27 31//27
f 31//28 5//28 32//28
f 32//29 5//29 33//29
f 33//30 5//30 34//30
f 34//31 5//31 35//31
f 35//32 5//32 36//32
f 36//33 5//33 4//33
f 20//34 28//34 12//34
f 36//34 4//34 6//34
f 6//34 7//34 8//34
f 8//34 9//34 10//34
f 10//34 11//34 8//34
f 12//34 13//34 14//34
f 14//34 15//34 12//34
f 16//34 17//34 20//34
f 18//34 19//34 20//34
f 20//34 21//34 22//34
f 22//34 23//34 24//34
f 24//34 25//34 26//34
f 26//34 27//34 28//34
f 28//34 29//34 30//34
f 30//34 31//34 32//34
f 32//34 33//34 36//34
f 34//34 35//34 36//34
f 36//34 6//34 12//34
f 8//34 11//34 12//34
f 12//34 15//34 16//34
f 17//34 18//34 20//34
f 20//34 22//34 28//34
f 24//34 26//34 28//34
f 28//34 30//34 36//34
f 33//34 34//34 36//34
f 6//34 8//34 12//34
f 12//34 16//34 20//34
f 22//34 24//34 28//34
f 30//34 32//34 36//34
f 36//34 12//34 28//34
o Cylinder
v -1.000000 0.000000 -0.250000
v 1.000000 -0.000000 -0.250000
v -1.000000 -0.048773 -0.245196
v 1.000000 -0.048773 -0.245196
v -1.000000 -0.095671 -0.230970
v 1.000000 -0.095671 -0.230970
v -1.000000 -0.138893 -0.207867
v 1.000000 -0.138893 -0.207867
v -1.000000 -0.176777 -0.176777
v 1.000000 -0.176777 -0.176777
v -1.000000 -0.207867 -0.138893
v 1.000000 -0.207867 -0.138893
v -1.000000 -0.230970 -0.095671
v 1.000000 -0.230970 -0.095671
v -1.000000 -0.245196 -0.048773
v 1.000000 -0.245196 -0.048773
v -1.000000 -0.250000 -0.000000
v 1.000000 -0.250000 -0.000000
v -1.000000 -0.245196 0.048773
v 1.000000 -0.245196 0.048773
v -1.000000 -0.230970 0.095671
v 1.000000 -0.230970 0.095671
v -1.000000 -0.207867 0.138893
v 1.000000 -0.207867 0.138893
v -1.000000 -0.176777 0.176777
v 1.000000 -0.176777 0.176777
v -1.000000 -0.138893 0.207867
v 1.000000 -0.138893 0.207867
v -1.000000 -0.095671 0.230970
v 1.000000 -0.095671 0.230970
v -1.000000 -0.048772 0.245196
v 1.000000 -0.048773 0.245196
v -1.000000 0.000000 0.250000
v 1.000000 0.000000 0.250000
v -1.000000 0.048773 0.245196
v 1.000000 0.048773 0.245196
v -1.000000 0.095671 0.230970
v 1.000000 0.095671 0.230970
v -1.000000 0.138893 0.207867
v 1.000000 0.138893 0.207867
v -1.000000 0.176777 0.176777
v 1.000000 0.176777 0.176777
v -1.000000 0.207868 0.138892
v 1.000000 0.207867 0.138892
v -1.000000 0.230970 0.095671
v 1.000000 0.230970 0.095671
v -1.000000 0.245196 0.048772
v 1.000000 0.245196 0.048772
v -1.000000 0.250000 -0.000000
v 1.000000 0.250000 -0.000000
v -1.000000 0.245196 -0.048773
v 1.000000 0.245196 -0.048773
v -1.000000 0.230970 -0.095671
v 1.000000 0.230970 -0.095671
v -1.000000 0.207867 -0.138893
v 1.000000 0.207867 -0.138893
v -1.000000 0.176777 -0.176777
v 1.000000 0.176776 -0.176777
v -1.000000 0.138892 -0.207868
v 1.000000 0.138892 -0.207868
v -1.000000 0.095671 -0.230970
v 1.000000 0.095670 -0.230970
v -1.000000 0.048772 -0.245196
v 1.000000 0.048772 -0.245196
vn 0.0000 -0.0980 -0.9952
vn -0.0000 -0.2903 -0.9569
vn -0.0000 -0.4714 -0.8819
vn -0.0000 -0.6344 -0.7730
vn -0.0000 -0.7730 -0.6344
vn -0.0000 -0.8819 -0.4714
vn -0.0000 -0.9569 -0.2903
vn -0.0000 -0.9952 -0.0980
vn -0.0000 -0.9952 0.0980
vn -0.0000 -0.9569 0.2903
vn -0.0000 -0.8819 0.4714
vn -0.0000 -0.7730 0.6344
vn -0.0000 -0.6344 0.7730
vn -0.0000 -0.4714 0.8819
vn -0.0000 -0.2903 0.9569
vn 0.0000 -0.0980 0.9952
vn 0.0000 0.0980 0.9952
vn 0.0000 0.2903 0.9569
vn 0.0000 0.4714 0.8819
vn 0.0000 0.6344 0.7730
vn 0.0000 0.7730 0.6344
vn 0.0000 0.8819 0.4714
vn 0.0000 0.9569 0.2903
vn 0.0000 0.9952 0.0980
vn 0.0000 0.9952 -0.0980
vn 0.0000 0.9569 -0.2903
vn 0.0000 0.8819 -0.4714
vn 0.0000 0.7730 -0.6344
vn 0.0000 0.6344 -0.7730
vn 0.0000 0.4714 -0.8819
vn 1.0000 -0.0000 0.0000
vn 0.0000 0.2903 -0.9569
vn 0.0000 0.0980 -0.9952
vn -1.0000 0.0000 0.0000
usemtl None
s off
f 38//35 39//35 37//35
f 40//36 41//36 39//36
f 42//37 43//37 41//37
f 44//38 45//38 43//38
f 46//39 47//39 45//39
f 48//40 49//40 47//40
f 50//41 51//41 49//41
f 52//42 53//42 51//42
f 54//43 55//43 53//43
f 56//44 57//44 55//44
f 58//45 59//45 57//45
f 60//46 61//46 59//46
f 62//47 63//47 61//47
f 64//48 65//48 63//48
f 66//49 67//49 65//49
f 68//50 69//50 67//50
f 70//51 71//51 69//51
f 72//52 73//52 71//52
f 74//53 75//53 73//53
f 76//54 77//54 75//54
f 78//55 79//55 77//55
f 80//56 81//56 79//56
f 82//57 83//57 81//57
f 84//58 85//58 83//58
f 86//59 87//59 85//59
f 88//60 89//60 87//60
f 90//61 91//61 89//61
f 92//62 93//62 91//62
f 94//63 95//63 93//63
f 96//64 97//64 95//64
f 74//65 58//65 90//65
f 98//66 99//66 97//66
f 100//67 37//67 99//67
f 67//68 83//68 51//68
f 38//35 40//35 39//35
f 40//36 42//36 41//36
f 42//37 44//37 43//37
f 44//38 46//38 45//38
f 46//39 48//39 47//39
f 48//40 50//40 49//40
f 50//41 52//41 51//41
f 52//42 54//42 53//42
f 54//43 56//43 55//43
f 56//44 58//44 57//44
f 58//45 60//45 59//45
f 60//46 62//46 61//46
f 62//47 64//47 63//47
f 64//48 66//48 65//48
f 66//49 68//49 67//49
f 68//50 70//50 69//50
f 70//51 72//51 71//51
f 72//52 74//52 73//52
f 74//53 76//53 75//53
f 76//54 78//54 77//54
f 78//55 80//55 79//55
f 80//56 82//56 81//56
f 82//57 84//57 83//57
f 84//58 86//58 85//58
f 86//59 88//59 87//59
f 88//60 90//60 89//60
f 90//61 92//61 91//61
f 92//62 94//62 93//62
f 94//63 96//63 95//63
f 96//64 98//64 97//64
f 42//65 40//65 38//65
f 38//65 100//65 42//65
f 98//65 96//65 94//65
f 94//65 92//65 90//65
f 90//65 88//65 86//65
f 86//65 84//65 90//65
f 82//65 80//65 74//65
f 78//65 76//65 74//65
f 74//65 72//65 70//65
f 70//65 68//65 66//65
f 66//65 64//65 62//65
f 62//65 60//65 58//65
f 58//65 56//65 54//65
f 54//65 52//65 58//65
f 50//65 48//65 46//65
f 46//65 44//65 42//65
f 42//65 100//65 98//65
f 98//65 94//65 42//65
f 90//65 84//65 82//65
f 80//65 78//65 74//65
f 74//65 70//65 58//65
f 66//65 62//65 58//65
f 58//65 52//65 50//65
f 50//65 46//65 58//65
f 42//65 94//65 90//65
f 90//65 82//65 74//65
f 70//65 66//65 58//65
f 58//65 46//65 42//65
f 42//65 90//65 58//65
f 98//66 100//66 99//66
f 100//67 38//67 37//67
f 99//68 37//68 39//68
f 39//68 41//68 43//68
f 43//68 45//68 47//68
f 47//68 49//68 43//68
f 51//68 53//68 55//68
f 55//68 57//68 51//68
f 59//68 61//68 67//68
f 63//68 65//68 67//68
f 67//68 69//68 71//68
f 71//68 73//68 75//68
f 75//68 77//68 79//68
f 79//68 81//68 83//68
f 83//68 85//68 87//68
f 87//68 89//68 91//68
f 91//68 93//68 99//68
f 95//68 97//68 99//68
f 99//68 39//68 51//68
f 43//68 49//68 51//68
f 51//68 57//68 59//68
f 61//68 63//68 67//68
f 67//68 71//68 83//68
f 75//68 79//68 83//68
f 83//68 87//68 99//68
f 93//68 95//68 99//68
f 39//68 43//68 51//68
f 51//68 59//68 67//68
f 71//68 75//68 83//68
f 87//68 91//68 99//68
f 99//68 51//68 83//68
o Cone.002_Cone.003
v -1.000000 0.646667 0.000000
v -0.600000 0.246667 0.000000
v -1.000000 0.246667 0.000000
vn 0.0000 -0.0000 1.0000
usemtl None
s off
f 101//69 103//69 102//69
o Cone.003_Cone.004
v -1.000000 -0.465338 -0.451785
v -0.600000 -0.182496 -0.168942
v -1.000000 -0.182496 -0.168942
vn -0.0000 0.7071 -0.7071
usemtl None
s off
f 104//70 106//70 105//70
